<?xml version="1.0" encoding="UTF-8" standalone="no"?>
<svg
   xmlns:dc="http://purl.org/dc/elements/1.1/"
   xmlns:cc="http://creativecommons.org/ns#"
   xmlns:rdf="http://www.w3.org/1999/02/22-rdf-syntax-ns#"
   xmlns:svg="http://www.w3.org/2000/svg"
   xmlns="http://www.w3.org/2000/svg"
   viewBox="0 0 618 567.33331"
   height="567.33331"
   width="618"
   id="svg279"
   version="1.1">
  <metadata
     id="metadata285">
    <rdf:RDF>
      <cc:Work
         rdf:about="">
        <dc:format>image/svg+xml</dc:format>
        <dc:type
           rdf:resource="http://purl.org/dc/dcmitype/StillImage" />
        <dc:title></dc:title>
      </cc:Work>
    </rdf:RDF>
  </metadata>
  <defs
     id="defs283" />
  <path
     id="path293"
     d="m 303.44586,10.137036 c -5.45248,-0.01271 -11.16825,1.196896 -15.5,3.490234 -2.2233,1.17706 -36.31786,20.815135 -72.66601,41.853515 -9.71667,5.62403 -29.21733,16.886114 -43.33399,25.027344 -14.11667,8.14123 -32.56667,18.791485 -41,23.666021 -8.43334,4.87453 -23.79746,13.74701 -34.142578,19.7168 -10.345121,5.96979 -20.115746,11.75271 -21.712886,12.85156 -5.78055,3.97713 -11.26142,12.98815 -12.5,20.55078 -0.38668,2.36107 -0.63386,51.782 -0.63086,126.21484 0.0065,133.63939 -0.202951,126.24415 3.824219,134.53125 3.8518,7.92622 7.536087,10.72588 32.830077,24.95117 1.649998,0.92796 8.098688,4.67035 14.332028,8.31641 6.23333,3.64606 20.33399,11.83585 31.33399,18.19922 11,6.36337 26.3,15.22147 34,19.68555 38.9605,22.5875 53.53017,31.01276 70,40.47656 9.9,5.6887 19.50065,11.27963 21.33398,12.42383 1.83334,1.1442 4.08334,2.45486 5,2.91406 0.91667,0.4593 4.68301,2.55892 8.3711,4.66602 6.31866,3.6099 10.67961,5.33935 15.29492,6.06445 3.19737,0.5023 11.04593,-0.16951 14.64453,-1.25391 1.82138,-0.5488 6.32138,-2.71013 10,-4.80273 3.67862,-2.0926 7.50436,-4.26297 8.50195,-4.82227 0.99759,-0.5593 10.14824,-5.86255 20.33399,-11.78515 10.18574,-5.9226 22.27018,-12.93328 26.85351,-15.58008 12.75192,-7.3643 73.47437,-42.37561 76.05469,-43.85156 23.90573,-13.67408 50.32832,-29.14993 50.5,-29.57813 0.12222,-0.30486 0.54738,-0.55469 0.94336,-0.55469 0.39598,0 5.82664,-2.925 12.06836,-6.5 13.67793,-7.83417 18.2917,-11.92484 21.99609,-19.5 1.73246,-3.54273 2.64662,-6.55506 3.13672,-10.33398 0.46233,-3.565 0.62695,-46.00506 0.49609,-128 l -0.19531,-122.66602 -1.5039,-3.94531 c -3.90301,-10.24807 -8.73564,-14.76857 -26.90626,-25.16016 -13.25672,-7.58139 -46.68289,-26.84349 -81.58984,-47.017578 -9.53333,-5.50969 -24.23464,-14.005026 -32.66797,-18.878906 -16.66836,-9.63314 -62.17782,-35.889164 -75.8457,-43.757812 -4.68188,-2.695381 -10.29697,-5.503362 -12.47852,-6.238282 -2.72808,-0.919023 -5.90429,-1.365422 -9.17578,-1.373046 z m -1.86719,139.974614 a 59.448771,60.519556 0 0 1 59.44727,60.51953 59.448771,60.519556 0 0 1 -59.44727,60.51953 59.448771,60.519556 0 0 1 -59.44921,-60.51953 59.448771,60.519556 0 0 1 59.44921,-60.51953 z m -0.73437,130.28516 a 35.01462,73.856858 89.334309 0 1 74.57422,32.90624 h 0.61133 l -0.62696,106.15626 H 226.80328 l 0.62696,-106.15626 h 0.65429 a 35.01462,73.856858 89.334309 0 1 72.75977,-32.90624 z"
     style="fill:#000000;stroke-width:0.66666663" />
  <g
     transform="matrix(0.74347743,0,0,0.74111369,80.35736,84.76153)"
     id="g1034" />
</svg>
