<?xml version="1.0" encoding="UTF-8" standalone="no"?>
<!-- Created with Inkscape (http://www.inkscape.org/) -->

<svg
   xmlns:dc="http://purl.org/dc/elements/1.1/"
   xmlns:cc="http://creativecommons.org/ns#"
   xmlns:rdf="http://www.w3.org/1999/02/22-rdf-syntax-ns#"
   xmlns:svg="http://www.w3.org/2000/svg"
   xmlns="http://www.w3.org/2000/svg"
   xmlns:sodipodi="http://sodipodi.sourceforge.net/DTD/sodipodi-0.dtd"
   xmlns:inkscape="http://www.inkscape.org/namespaces/inkscape"
   version="1.1"
   id="svg279"
   width="618"
   height="567.33331"
   viewBox="0 0 618 567.33331"
   sodipodi:docname="icon.svg"
   inkscape:version="0.92.4 5da689c313, 2019-01-14">
  <metadata
     id="metadata285">
    <rdf:RDF>
      <cc:Work
         rdf:about="">
        <dc:format>image/svg+xml</dc:format>
        <dc:type
           rdf:resource="http://purl.org/dc/dcmitype/StillImage" />
        <dc:title></dc:title>
      </cc:Work>
    </rdf:RDF>
  </metadata>
  <defs
     id="defs283" />
  <sodipodi:namedview
     pagecolor="#ffffff"
     bordercolor="#666666"
     borderopacity="1"
     objecttolerance="10"
     gridtolerance="10"
     guidetolerance="10"
     inkscape:pageopacity="0"
     inkscape:pageshadow="2"
     inkscape:window-width="1863"
     inkscape:window-height="2018"
     id="namedview281"
     showgrid="false"
     inkscape:zoom="0.41598121"
     inkscape:cx="309"
     inkscape:cy="283.66666"
     inkscape:window-x="1939"
     inkscape:window-y="104"
     inkscape:window-maximized="0"
     inkscape:current-layer="svg279" />
  <path
     style="fill:#000000;stroke-width:0.66666663"
     d="m 305.92937,548.08753 c -4.61531,-0.7251 -8.97576,-2.4539 -15.29443,-6.0638 -3.68806,-2.1071 -7.45557,-4.2069 -8.37224,-4.6662 -0.91666,-0.4592 -3.16666,-1.7712 -5,-2.9154 -1.83333,-1.1442 -11.43333,-6.7348 -21.33333,-12.4235 -16.46983,-9.4638 -31.03949,-17.8884 -69.99999,-40.4759 -7.7,-4.46408 -23,-13.32293 -34,-19.6863 -11,-6.36337 -25.1,-14.5529 -31.33333,-18.19896 -6.23334,-3.64606 -12.68334,-7.38844 -14.33334,-8.3164 -25.293993,-14.2253 -28.977613,-17.02494 -32.829413,-24.95116 -4.02717,-8.2871 -3.81699,-0.89177 -3.82354,-134.53116 -0.003,-74.43284 0.24286,-123.85277 0.62954,-126.21384 1.23858,-7.56263 6.72033,-16.57486 12.50088,-20.55199 1.59714,-1.09885 11.36808,-6.88229 21.713213,-12.85208 10.34512,-5.96979 25.70932,-14.84242 34.14266,-19.71695 8.43333,-4.87453 26.88333,-15.52379 41,-23.66502 14.11666,-8.14123 33.61665,-19.40371 43.33332,-25.02774 36.34815,-21.03838 70.44337,-40.6757296 72.66667,-41.8527896 6.9308,-3.66934 17.40029,-4.56744 24.67519,-2.11671 2.18155,0.73492 7.79709,3.54151 12.47897,6.2368896 13.66788,7.86865 59.17748,34.12437 75.84584,43.75751 8.43333,4.87388 23.13333,13.36952 32.66666,18.87921 34.90695,20.17409 68.33327,39.43682 81.58999,47.01821 18.17061,10.39159 23.00408,14.91106 26.90709,25.15913 l 1.50292,3.94618 0.19576,122.66666 c 0.13086,81.99494 -0.0336,124.43499 -0.49593,127.99999 -0.4901,3.77892 -1.40433,6.79061 -3.13679,10.33334 -3.70439,7.57516 -8.31883,11.66583 -21.99676,19.5 -6.24172,3.575 -11.67256,6.5 -12.06854,6.5 -0.39598,0 -0.81996,0.24942 -0.94218,0.55428 -0.17168,0.4282 -26.59552,15.9048 -50.50125,29.57888 -2.58032,1.47595 -63.30239,36.48672 -76.05431,43.85102 -4.58333,2.6468 -16.66712,9.6582 -26.85286,15.5808 -10.18575,5.9226 -19.33575,11.226 -20.33334,11.7853 -0.99759,0.5593 -4.82358,2.729 -8.5022,4.8216 -3.67862,2.0926 -8.17862,4.2537 -10,4.8025 -3.5986,1.0844 -11.44756,1.7567 -14.64493,1.2544 z m -124.38838,-187.56211 18.7566,-8 h 108.9611 108.96111 l 15.85479,6.72007 c 22.54514,9.55578 22.76501,9.63629 23.71763,8.68409 1.33712,-1.33653 1.48972,-21.40112 0.20466,-26.91012 -2.09665,-8.98826 -7.20014,-15.98556 -14.69481,-20.1478 -2.22165,-1.23382 -10.03937,-4.34115 -17.3727,-6.90518 -51.41745,-17.9776 -72.96652,-26.39344 -81.40782,-31.79328 -4.11294,-2.63101 -6.68582,-5.96248 -12.05287,-15.60653 -4.78252,-8.59368 -9.92674,-14.35629 -14.70598,-16.47375 l -3.5,-1.55069 0.0104,-3.17507 c 0.006,-1.74629 0.4327,-4.97044 0.94884,-7.16479 0.89216,-3.79306 1.28655,-4.3242 8.00189,-10.77642 9.11647,-8.75926 10.04441,-10.64071 9.97933,-20.23386 -0.0383,-5.6447 -0.34498,-7.76398 -1.58399,-10.94587 -3.96758,-10.18916 -14.30901,-15.59772 -26.38839,-13.80114 -11.07591,1.64734 -17.22324,7.07788 -20.0569,17.71826 -1.69107,6.34994 -0.72714,19.29624 1.50037,20.15101 0.95945,0.36818 8.70383,-2.23028 9.24191,-3.10091 0.16049,-0.25968 -0.0156,-2.44647 -0.39125,-4.85953 -0.80286,-5.15692 0.0682,-11.25011 1.97676,-13.82849 1.85625,-2.50764 4.96069,-4.04814 8.99749,-4.46477 11.0097,-1.1363 15.76354,2.99244 15.76354,13.6907 v 5.0631 l -6.30966,5.9269 c -9.41947,8.84806 -10.80736,11.4693 -12.5571,23.71609 -0.52216,3.65471 -1.14712,5.78196 -1.7999,6.12653 -0.55,0.2903 -2.686,1.26144 -4.74668,2.15808 -6.27162,2.72891 -8.25572,4.91446 -17.40898,19.1766 -2.02138,3.1496 -4.75492,6.80623 -6.07452,8.12584 -6.62008,6.62008 -24.57241,14.5521 -75.76981,33.47799 -22.73238,8.40337 -31.96495,13.7012 -34.99127,20.07869 -2.20039,4.63697 -3.18867,13.1323 -2.82196,24.25758 0.35219,10.68466 0.68789,12.66666 2.14539,12.66666 0.4709,0 9.29666,-3.59999 19.61278,-7.99999 z m -14.50598,-12.5 c 0.29612,-12.67339 0.95352,-14.32169 7.44618,-18.67008 5.76898,-3.8637 11.5762,-6.29539 40.11485,-16.79753 27.92098,-10.27483 48.30539,-19.01937 56.66865,-24.30979 6.80763,-4.30637 9.99616,-7.88715 16.67167,-18.7226 6.31161,-10.24479 10.6911,-13.63201 18.32634,-14.17412 9.42023,-0.66885 12.86915,1.83973 20.01462,14.55767 7.06926,12.58228 11.1792,16.82036 20.89012,21.54148 10.99332,5.34458 39.16359,16.13925 69.76193,26.73233 17.04322,5.90032 22.13966,7.94194 25.13549,10.06921 6.89376,4.89507 9.5214,10.79211 10.03892,22.52973 l 0.34933,7.92298 -1.92853,-0.35342 c -1.0607,-0.19437 -8.34098,-3.08471 -16.17839,-6.42297 l -14.24985,-6.06956 H 309.15873 198.22113 l -14.76388,6.33333 c -8.12014,3.48334 -15.19222,6.33334 -15.71573,6.33334 -0.79478,0 -0.91136,-1.73265 -0.70651,-10.5 z m 227.87055,-12.4388 c -0.5369,-0.51634 -13.27619,-6.09828 -28.30952,-12.40433 -15.03334,-6.30605 -31.68334,-13.34779 -37,-15.64832 -13.53714,-5.85755 -14.0484,-5.99649 -22,-5.97875 -7.85048,0.0175 -8.74953,0.27371 -21.66667,6.17424 -7.22611,3.30088 -30.06386,13.26608 -53.48386,23.33756 -4.84945,2.08546 -8.96504,4.16673 -9.14574,4.62506 -0.26182,0.66408 17.23171,0.83334 86.12671,0.83334 74.36178,0 86.31872,-0.13132 85.47908,-0.9388 z M 256.2627,328.88711 c 0,-0.37237 11.41237,-5.88187 15.81447,-7.63468 1.75204,-0.69762 7.83553,-3.41851 13.51887,-6.04643 15.17004,-7.01447 14.82871,-6.90809 22.33333,-6.96048 6.45753,-0.0451 6.85489,0.0404 12.66667,2.72514 5.42965,2.50822 24.36544,10.58348 35.83333,15.2813 2.475,1.01389 4.5,2.09019 4.5,2.39178 0,0.30159 -23.55,0.54834 -52.33333,0.54834 -28.78334,0 -52.33334,-0.13724 -52.33334,-0.30497 z"
     id="path293"
     inkscape:connector-curvature="0" />
</svg>
