<?xml version="1.0" encoding="UTF-8" standalone="no"?>
<!-- Created with Inkscape (http://www.inkscape.org/) -->

<svg
   xmlns:dc="http://purl.org/dc/elements/1.1/"
   xmlns:cc="http://creativecommons.org/ns#"
   xmlns:rdf="http://www.w3.org/1999/02/22-rdf-syntax-ns#"
   xmlns:svg="http://www.w3.org/2000/svg"
   xmlns="http://www.w3.org/2000/svg"
   xmlns:sodipodi="http://sodipodi.sourceforge.net/DTD/sodipodi-0.dtd"
   xmlns:inkscape="http://www.inkscape.org/namespaces/inkscape"
   version="1.1"
   id="svg178"
   width="1154"
   height="500"
   viewBox="0 0 1154 500"
   sodipodi:docname="logo.svg"
   inkscape:version="0.92.4 5da689c313, 2019-01-14">
  <metadata
     id="metadata184">
    <rdf:RDF>
      <cc:Work
         rdf:about="">
        <dc:format>image/svg+xml</dc:format>
        <dc:type
           rdf:resource="http://purl.org/dc/dcmitype/StillImage" />
        <dc:title></dc:title>
      </cc:Work>
    </rdf:RDF>
  </metadata>
  <defs
     id="defs182" />
  <sodipodi:namedview
     pagecolor="#ffffff"
     bordercolor="#666666"
     borderopacity="1"
     objecttolerance="10"
     gridtolerance="10"
     guidetolerance="10"
     inkscape:pageopacity="0"
     inkscape:pageshadow="2"
     inkscape:window-width="1863"
     inkscape:window-height="2018"
     id="namedview180"
     showgrid="false"
     inkscape:zoom="1.3639515"
     inkscape:cx="577"
     inkscape:cy="250"
     inkscape:window-x="1939"
     inkscape:window-y="104"
     inkscape:window-maximized="0"
     inkscape:current-layer="svg178" />
  <path
     style="fill:#000000;stroke-width:0.66666669"
     d="m 248.11536,409.19417 c -2.9241,-1.53761 -6.96654,-3.79481 -8.98321,-5.01599 -2.01667,-1.22118 -28.11667,-16.33972 -58,-33.59675 -59.22377,-34.20055 -58.99248,-34.04516 -61.01171,-40.99106 -0.88176,-3.03313 -0.9885,-12.86923 -0.83314,-76.76863 l 0.17818,-73.28976 1.50452,-2.81562 c 0.82748,-1.5486 2.4993,-3.7986 3.71516,-5 1.76112,-1.7402 117.71007,-69.19475 126.39046,-73.529012 3.4421,-1.7187 11.00928,-1.54293 14.77122,0.3431 9.2679,4.646422 123.8968,71.368072 125.73459,73.185912 1.21459,1.2014 2.88539,3.4514 3.71287,5 l 1.50452,2.81562 v 75 75 l -1.7766,3 c -0.97712,1.65 -2.77712,3.95038 -4,5.11196 -1.22287,1.16158 -27.5734,16.74454 -58.55674,34.6288 -76.2749,44.02756 -67.29736,39.21576 -73.67445,39.48816 -5.19843,0.22206 -5.51853,0.1451 -10.67567,-2.56673 z m -64.98321,-105.32885 10.96789,-4.66667 h 63.40431 63.40431 l 10.88108,4.64256 c 5.9846,2.55341 11.13488,4.4857 11.44508,4.29399 0.3102,-0.19172 0.564,-3.61962 0.564,-7.61755 0,-8.74619 -1.34464,-13.11493 -5.16238,-16.77272 -3.35896,-3.21823 -4.60427,-3.78653 -20.29396,-9.26126 -27.43116,-9.57176 -40.05578,-14.87249 -42.9914,-18.05089 -0.79625,-0.8621 -2.70592,-3.81746 -4.2437,-6.56746 -3.28622,-5.8767 -5.41976,-8.3315 -8.71445,-10.0266 l -2.40589,-1.23781 0.52538,-3.32346 c 0.68486,-4.33239 1.1334,-5.07676 5.59717,-9.28867 4.45584,-4.20442 5.02256,-5.4783 5.02256,-11.28972 0,-9.0609 -4.7152,-13.83374 -13.66667,-13.83374 -5.73152,0 -9.1521,1.58524 -11.94214,5.53447 -1.64501,2.32849 -1.98603,3.54331 -2.22906,7.94063 -0.1578,2.85536 0.0267,5.9981 0.41004,6.98388 l 0.69697,1.7923 2.73245,-1.07333 2.73244,-1.07333 -0.4282,-3.42727 c -0.97145,-7.77517 4.34099,-12.14079 11.6664,-9.58714 2.48904,0.86769 4.02777,3.78358 4.02777,7.63265 0,2.13072 -0.57294,2.99182 -4.62005,6.94372 -4.78862,4.67597 -5.43184,5.96744 -6.42158,12.89341 -0.42671,2.98607 -0.66604,3.3159 -3.20973,4.42344 -3.39429,1.4779 -5.34603,3.51935 -10.24831,10.71937 -2.47592,3.6364 -4.92263,6.35832 -6.9084,7.68547 -4.23495,2.83035 -14.04841,7.03819 -33.09675,14.19129 -23.77967,8.92983 -27.21731,10.96464 -28.73999,17.01174 -1.09528,4.34976 -0.9675,19.07536 0.16552,19.07536 0.0613,0 5.04695,-2.1 11.07929,-4.66666 z m -8,-6.68808 c 0,-3.0956 0.39594,-6.30236 0.93847,-7.60082 1.6826,-4.02704 3.87073,-5.08773 33.7282,-16.34973 11.55945,-4.36014 24.14118,-10.13431 27.88394,-12.79685 1.2195,-0.86754 4.2195,-4.5646 6.66666,-8.21569 5.12366,-7.64433 7.34346,-9.30506 12.42226,-9.29369 4.70963,0.0105 6.498,1.45322 10.74326,8.66653 2.06142,3.50266 4.94558,7.33429 6.64998,8.83457 3.62961,3.1949 12.98475,7.16869 36.6339,15.56098 9.16666,3.25294 17.9818,6.39746 19.5892,6.98782 3.93976,1.44696 7.63819,5.26872 8.65279,8.94129 0.94373,3.41605 1.31278,9.62043 0.61384,10.31978 -0.26263,0.26277 -4.41002,-1.2121 -9.21644,-3.2775 l -8.73894,-3.75528 h -64.24395 -64.24395 l -8.50225,3.66667 c -4.67624,2.01666 -8.74406,3.66666 -9.03961,3.66666 -0.29555,0 -0.53736,-2.40963 -0.53736,-5.35474 z m 131.63333,-7.93241 c -1.1232,-1.10041 -41.83256,-18.16446 -45.89984,-19.23973 -5.40854,-1.42985 -8.44398,-0.68888 -22.19174,5.41719 -6.16463,2.73802 -15.55842,6.85515 -20.87508,9.14917 -5.31667,2.29403 -9.95167,4.42361 -10.3,4.7324 -0.34834,0.3088 21.98666,0.56146 49.63333,0.56146 31.02615,0 50.02425,-0.2375 49.63333,-0.62049 z m -79.93333,-3.93223 c 0.34833,-0.304 6.10595,-3.02543 12.79471,-6.04762 13.36944,-6.04075 17.1667,-6.94547 21.83862,-5.20318 5.26062,1.96184 25.34632,10.63575 25.96667,11.21359 0.36797,0.34275 -12.3277,0.58993 -30.3,0.58993 -17.01333,0 -30.64833,-0.24872 -30.3,-0.55272 z m 236.3678,10.61072 c -4.03563,-0.43883 -5.60961,-1.8549 -4.32514,-3.89122 0.66037,-1.04691 2.09584,-1.16706 13.99659,-1.17148 12.43454,-0.005 13.50868,-0.10448 17.24009,-1.60265 6.88988,-2.76629 12.37959,-9.46781 12.33621,-15.05932 -0.021,-2.70977 -3.3665,-10.71903 -6.95445,-16.64929 -2.03194,-3.35846 -3.69443,-6.26462 -3.69443,-6.45814 0,-0.19352 0.75516,-1.22351 1.67814,-2.28888 10.94494,-12.63338 2.65244,-27.86502 -17.43173,-32.01852 -6.60673,-1.3663 -16.45353,-0.9707 -21.24641,0.85357 -3.3194,1.26343 -3.33543,1.28399 -3.83329,4.915 -0.47271,3.44757 0.21927,24.39089 1.48614,44.97959 0.42589,6.92136 0.96293,10.39896 2.07814,13.45688 1.25008,3.42774 1.35776,4.29956 0.63813,5.16667 -1.04106,1.2544 -2.94678,1.35709 -3.89353,0.20979 -1.99351,-2.41581 -3.55427,-9.67645 -4.16857,-19.3923 -0.87524,-13.84274 -1.61206,-47.80158 -1.08292,-49.90983 0.33836,-1.34812 1.32994,-2.07374 4.60357,-3.36875 15.3881,-6.08739 35.79054,-2.66716 46.13857,7.73458 4.86214,4.88737 6.57116,8.83355 6.59422,15.22628 0.0165,4.58008 -0.24195,5.65028 -2.43766,10.09298 -1.35088,2.73332 -2.45614,5.10162 -2.45614,5.26289 0,0.16127 1.35542,2.66943 3.01203,5.57369 4.20857,7.37815 5.69965,11.70444 5.73759,16.64726 0.0781,10.17564 -8.07792,18.67462 -20.43242,21.29161 -4.65179,0.98537 -16.36974,1.18392 -23.58273,0.39959 z m 56.37645,-1.18334 c -2.39838,-4.65414 -3.17646,-9.50822 -4.09408,-25.54133 -1.45575,-25.43569 -1.89234,-41.21619 -1.3711,-49.55835 l 0.4786,-7.65987 6.43783,-0.49994 c 3.54081,-0.27497 12.28783,-0.52587 19.43783,-0.55755 10.97812,-0.0487 13.657,0.14 17.22422,1.21304 8.59988,2.58689 15.45083,8.79065 18.84266,17.06267 1.15924,2.82719 1.51449,5.04777 1.55163,9.69899 0.0453,5.68262 -0.0963,6.32032 -2.44336,11 -3.4892,6.95689 -8.01369,11.35196 -17.56619,17.06375 -1.16276,0.69525 -0.61204,1.41707 6.22438,8.15819 4.125,4.0675 7.5,7.93927 7.5,8.60393 0,1.43427 -1.23285,2.80847 -2.51958,2.80847 -1.2927,0 -20.8013,-18.77563 -20.80814,-20.02635 -0.003,-0.62757 2.44414,-2.27517 6.2994,-4.24049 7.9664,-4.06105 13.57947,-9.17995 16.1555,-14.73316 4.9396,-10.64838 -0.10114,-23.5742 -11.16152,-28.62112 -6.13506,-2.79946 -11.99634,-3.35414 -26.60669,-2.51787 -7.06422,0.40434 -13.03489,0.9268 -13.26817,1.16103 -0.75562,0.7587 -0.19501,32.84988 0.87308,49.97796 0.80293,12.87608 1.36909,17.78216 2.48933,21.5713 1.56653,5.29872 1.27497,6.9166 -1.31614,7.30336 -0.97156,0.14502 -1.68591,-0.35958 -2.35949,-1.66666 z m 123.54568,0.292 c -0.35648,-0.825 -2.09258,-6 -3.85802,-11.5 -3.57124,-11.12581 -3.24179,-10.80416 -8.79858,-8.59004 -3.0598,1.21918 -13.03708,1.64949 -22.30654,0.96205 l -3.9732,-0.29466 -1.39936,8.17655 c -1.39475,8.1497 -1.97904,9.38037 -4.46411,9.40256 -2.52314,0.0225 -2.50277,-1.98558 0.18971,-18.69696 2.99738,-18.60376 3.44434,-20.83145 5.74358,-28.62616 3.49044,-11.8331 11.4615,-24.05701 14.98864,-22.98564 2.60791,0.79216 4.3399,2.88381 7.08497,8.55623 5.04075,10.41623 10.25131,24.75765 18.53464,51.01426 3.45974,10.96674 3.59445,11.65147 2.52488,12.83333 -1.52821,1.68866 -3.47792,1.57373 -4.26661,-0.25152 z m -12.75014,-26.19913 c 3.33218,-1.51765 3.54254,-1.75125 3.1195,-3.46413 -0.7075,-2.8646 -1.32327,-3.05719 -4.44664,-1.39075 -2.67844,1.42905 -3.71675,1.55401 -12.91265,1.55401 -5.89569,0 -10.20103,0.27362 -10.48979,0.66667 -0.26939,0.36667 -0.49439,1.31779 -0.5,2.11361 -0.009,1.30163 0.44168,1.48932 4.48979,1.86899 2.475,0.23213 5.1,0.53235 5.83333,0.66716 3.42482,0.62958 11.49445,-0.46155 14.90646,-2.01556 z m -6.40756,-9.00229 c 1.3744,-0.38168 3.30871,-1.39054 4.29848,-2.2419 1.7348,-1.49222 1.76898,-1.64998 0.9499,-4.38386 -1.47345,-4.91792 -8.60809,-21.48636 -9.73333,-22.60326 -0.98965,-0.9823 -1.17989,-0.93457 -2.33189,0.58502 -3.60234,4.75184 -8.80232,18.23927 -9.73095,25.23962 l -0.44565,3.3595 3.24727,0.25298 c 6.80425,0.53011 11.33502,0.46152 13.74617,-0.2081 z m 47.98817,36.14388 c -2.46373,-1.56375 -6.34626,-26.50756 -7.22881,-46.44246 -1.0078,-22.76409 4.69706,-33.70086 17.55368,-33.65202 6.6272,0.0252 11.7236,3.27116 17.152,10.92442 3.8838,5.47561 6.70966,11.27088 12.75893,26.16575 2.80593,6.90902 5.56167,13.68685 6.12387,15.06185 0.5622,1.375 1.27666,2.5 1.58773,2.5 1.04007,0 0.57353,-13.56279 -0.78473,-22.81472 -0.73867,-5.03143 -2.38707,-14.25208 -3.66307,-20.49034 -2.5996,-12.70908 -2.73027,-14.19121 -1.352,-15.33505 1.67053,-1.38641 3.60947,-0.19487 4.08607,2.51102 0.23853,1.35433 1.5882,8.31243 2.99933,15.46243 6.513,33.00197 6.08827,49.38986 -1.25813,48.54038 -2.50174,-0.28928 -4.78987,-4.37944 -10.78534,-19.27904 -8.9576,-22.26084 -12.90806,-29.67116 -18.39053,-34.49703 -7.59813,-6.68811 -15.99793,-4.35704 -19.39228,5.38166 -2.54915,7.31369 -0.69131,44.52766 2.87761,57.6412 1.6938,6.22354 1.76287,6.83409 0.89207,7.88333 -0.91967,1.10816 -1.90673,1.24446 -3.1764,0.43862 z m 81.67193,-0.0183 c -3.76713,-0.57806 -5.48733,-2.00608 -4.84693,-4.02372 0.43807,-1.38032 0.67253,-1.40428 9.58087,-0.97903 13.31313,0.63553 21.7082,-1.11679 30.75473,-6.41951 14.2802,-8.37048 21.10847,-23.49322 17.7608,-39.33518 -3.0242,-14.31125 -12.349,-23.65467 -27.7418,-27.79714 -4.8228,-1.2979 -20.07147,-1.64366 -28.2524,-0.64062 l -4.58567,0.56224 0.3824,24.10443 c 0.40827,25.73279 0.97127,32.73014 3.0028,37.32282 1.22287,2.76441 1.42314,2.90421 4.5328,3.1642 6.29527,0.52631 15.95967,0.20125 19.58674,-0.65881 16.9458,-4.01819 27.05353,-17.36785 24.6464,-32.55162 -2.46034,-15.51989 -13.9,-23.52247 -33.5864,-23.49529 -4.06634,0.005 -7.816,0.27777 -8.33254,0.60477 -0.78526,0.4971 -0.86273,3.03634 -0.47266,15.4898 0.2566,8.19237 0.74846,17.74522 1.09313,21.22856 1.6512,16.6891 1.65153,15.1083 0,15.99392 -2.43393,1.30261 -3.39007,-0.3855 -4.39673,-7.76254 -1.2006,-8.79831 -2.68987,-48.08946 -1.8544,-48.92491 1.33673,-1.33675 8.72066,-2.12116 16.57313,-1.76061 12.73033,0.58452 20.3914,3.26316 26.8974,9.40448 4.35007,4.1062 6.2134,7.22522 8.1332,13.61414 1.2326,4.10192 1.42227,6.01148 1.167,11.75113 -0.2734,6.14708 -0.54847,7.35987 -2.66907,11.76885 -2.99126,6.21926 -6.05646,9.73519 -11.71406,13.43666 -5.6574,3.70135 -10.5414,5.63793 -17.22034,6.82818 -6.259,1.1154 -10.52646,1.13683 -18.59413,0.0934 l -6,-0.77602 -1.79413,-3.66666 c -3.2374,-6.6162 -4.5122,-20.91183 -4.52887,-50.78841 -0.009,-17.00351 0.0814,-18.48264 1.15633,-18.80555 4.46454,-1.34116 17.976,-2.51976 25.16667,-2.19528 15.12073,0.68233 25.27927,4.61622 33.73027,13.06206 8.0338,8.02886 11.473,16.90842 11.5138,29.72718 0.0313,9.88672 -2.204,16.38024 -8.5414,24.81088 -5.42667,7.21905 -15.9516,13.80033 -26.36934,16.4888 -4.79033,1.23623 -19.10633,1.90211 -24.17433,1.12442 z m 71.841,-0.03 -4,-0.39409 -0.42166,-6.66667 c -0.23194,-3.66666 -0.4668,-14.61666 -0.52187,-24.33333 -0.0553,-9.71667 -0.3762,-22.31667 -0.71353,-28 -0.33734,-5.68333 -0.4344,-12.93304 -0.21567,-16.11045 l 0.39773,-5.77712 2.07087,-0.38139 c 5.70667,-1.051 30.7902,-3.69836 31.85113,-3.36163 1.462,0.46401 1.63207,3.12508 0.27187,4.25391 -0.52127,0.43262 -7.17553,1.52361 -14.7872,2.42443 -7.61173,0.90081 -14.0102,1.80805 -14.21893,2.01608 -0.4768,0.47534 -0.4358,5.04875 0.3686,41.07989 0.3578,16.02905 0.8854,29.37905 1.17246,29.66667 0.28707,0.28762 7.59047,0.67294 16.22974,0.85628 14.01613,0.29743 15.78686,0.45898 16.44206,1.5 0.53467,0.84958 0.5344,1.48374 0,2.33333 -0.66186,1.05001 -2.19473,1.17274 -15.32993,1.22743 -8.027,0.0334 -16.39453,-0.11659 -18.59453,-0.33334 z m 54.82567,0.03 c -3.7614,-0.57718 -5.48713,-2.00668 -4.84913,-4.01675 0.4358,-1.3731 0.6812,-1.39737 9.9018,-0.97927 13.43966,0.60942 22.07793,-1.26864 31.12166,-6.76618 16.8588,-10.2482 22.5943,-30.63434 13.7019,-48.7023 -4.1916,-8.51686 -12.8153,-14.97322 -24.03523,-17.99464 -5.6324,-1.51676 -18.09027,-1.97474 -26.31387,-0.96735 l -6.849,0.839 0.37174,24.08169 c 0.2044,13.24494 0.67633,26.40509 1.04866,29.2448 0.824,6.28474 2.7928,11.10541 4.5218,11.07171 0.67134,-0.0131 4.07067,0.17731 7.554,0.42309 24.09194,1.69992 41.7737,-13.63644 38.6309,-33.50676 -2.4479,-15.4771 -13.92356,-23.5014 -33.5709,-23.47427 -4.06633,0.005 -7.81633,0.27797 -8.33326,0.60525 -0.78634,0.49778 -0.865,3.08392 -0.48114,15.82312 0.25234,8.37545 0.7474,17.92809 1.10014,21.22809 1.64746,15.41315 1.64746,14.77832 0,15.66059 -2.37474,1.27091 -3.3488,-0.38022 -4.37147,-7.40978 -1.21,-8.31726 -2.74713,-48.41018 -1.88893,-49.26841 2.47466,-2.47465 20.975,-2.47023 29.5824,0.007 15.78386,4.54274 24.00626,16.40375 23.18566,33.44581 -0.2734,5.67696 -0.5975,7.04179 -2.7479,11.57 -7.1397,15.03407 -25.5241,22.97365 -46.7711,20.19874 l -6.66666,-0.87068 -1.78767,-3.66667 c -0.9832,-2.01666 -2.10627,-5.46666 -2.49573,-7.66666 -1.24567,-7.03777 -2.04994,-23.91096 -2.04994,-43.00811 0,-17.10715 0.0918,-18.59617 1.16667,-18.91756 3.00767,-0.89932 16.8166,-2.4074 22.02293,-2.40513 11.2238,0.005 22.021,2.6844 29.8698,7.41268 5.1813,3.12133 11.4703,9.99038 14.2739,15.59065 l 2.3334,4.6608 0.2045,13.88669 0.2045,13.88668 -1.9412,4.11332 c -5.6483,11.96835 -17.6084,21.37409 -31.5311,24.79701 -4.78253,1.17579 -19.248,1.81998 -24.11106,1.07374 z m -293.89353,-1.83921 c -1.85641,-2.23684 -1.46804,-9.32885 1.35076,-24.6658 4.4454,-24.18733 7.4848,-33.9545 13.63852,-43.82773 6.05165,-9.70948 12.21943,-15.03912 17.44769,-15.07672 2.96637,-0.0213 8.44743,2.95086 10.74273,5.82542 5.75575,7.20832 11.98041,22.25572 21.81112,52.72588 5.75817,17.8474 6.75942,21.56289 6.20209,23.01525 -0.49103,1.27962 -3.35283,1.449 -4.26028,0.25214 -0.3475,-0.45833 -4.29963,-11.93333 -8.78252,-25.5 -13.32238,-40.31788 -18.52923,-50.33335 -26.16735,-50.33335 -1.83962,0 -2.86124,0.68155 -6.05904,4.0421 -9.52298,10.00767 -13.67698,21.01829 -19.22505,50.9579 -2.06749,11.15702 -2.61514,15.51264 -2.28862,18.20192 0.46091,3.79612 -0.25427,5.46475 -2.34219,5.46475 -0.64354,0 -1.57408,-0.4868 -2.06786,-1.08177 z m -31.63443,-7.40877 c -12.42947,-12.03235 -23.25566,-22.10706 -23.49685,-21.86587 -0.13718,0.13718 0.18989,5.14849 0.72682,11.13625 1.01214,11.28735 0.7973,13.22016 -1.4695,13.22016 -2.84989,0 -3.1799,-1.87356 -4.99076,-28.33333 -1.67802,-24.51885 -1.9929,-37.15051 -0.95932,-38.48433 0.75904,-0.97954 2.62991,-1.21632 12.55857,-1.5894 15.94363,-0.59912 21.51965,0.63488 26.42813,5.84864 3.51834,3.73716 5.10128,7.64784 5.10128,12.6028 0,3.86852 -0.27312,4.80678 -2.33962,8.03724 -1.28679,2.01158 -3.65252,4.7812 -5.25717,6.15472 -3.85567,3.30032 -10.98255,6.8116 -15.7551,7.76224 -8.65337,1.72368 -9.31826,0.0492 5.79513,14.59466 11.4992,11.06712 13.4022,13.17688 13.2293,14.66666 -0.15068,1.29832 -0.6251,1.78482 -1.86862,1.91622 -1.30536,0.13795 -2.97506,-1.09046 -7.70229,-5.66666 z m -13.71685,-30.22962 c 8.3075,-1.05191 18.17987,-6.9937 21.14402,-12.72574 1.61494,-3.12295 1.20206,-7.88265 -0.9826,-11.3275 -2.89115,-4.55888 -6.52574,-6.07117 -15.37177,-6.39594 -3.87045,-0.1421 -9.13717,-0.0105 -11.70384,0.29236 l -4.66667,0.55072 0.17608,7.99646 c 0.0968,4.39806 0.34942,11.33922 0.56128,15.42481 l 0.38522,7.42835 2.77204,-0.31064 c 1.52463,-0.17085 4.98344,-0.59064 7.68624,-0.93288 z m 138.16021,31.14313 c -1.52647,-1.83923 -4.91787,-31.06876 -4.9996,-43.08963 -0.0713,-10.47692 0.007,-11.15851 1.59187,-14.33334 1.19746,-2.39493 2.3718,-3.67786 4.1714,-4.55717 2.47066,-1.20717 2.54653,-1.20363 5.5702,0.2601 5.73186,2.77475 10.4566,10.82269 19.8644,33.83615 7.2724,17.7899 10.78146,23.46092 14.517,23.46092 2.59353,0 5.21593,-2.05442 7.0402,-5.51532 1.80273,-3.42006 1.83593,-3.69485 1.79066,-14.81801 -0.048,-11.87469 -0.52366,-15.45996 -4.94153,-37.27237 -2.4456,-12.07493 -2.53027,-14.14006 -0.60467,-14.75122 0.84394,-0.26785 1.76394,-0.0856 2.29714,0.45507 0.48926,0.49602 2.0974,7.05185 3.57373,14.56852 3.734,19.01168 4.66667,25.16747 5.15393,34.01743 0.86554,15.72066 -2.55853,24.5503 -10.7308,27.6713 -4.2644,1.62858 -7.137,0.91102 -10.72773,-2.67972 -3.5298,-3.5298 -6.3002,-8.99589 -13.97313,-27.56961 -6.01867,-14.56915 -11.15927,-23.88709 -14.556,-26.38432 l -1.88847,-1.38841 -1.23233,1.51728 c -2.693,3.3156 -2.5786,17.00839 0.32666,39.11296 2.00927,15.28736 2.00307,17.94302 -0.042,18.23526 -0.7654,0.10936 -1.75566,-0.23978 -2.2006,-0.77587 z m -213.49516,-0.20706 c -3.90761,-0.20675 -5.35162,-0.56111 -6.22662,-1.52797 -0.85684,-0.9468 -0.97028,-1.55982 -0.45771,-2.47338 0.62055,-1.10601 1.77322,-1.2146 12.89328,-1.2146 10.99675,0 12.5125,-0.13915 15.23383,-1.39853 4.09866,-1.89677 6.78267,-5.12947 6.21525,-7.48583 -0.73147,-3.03762 -4.23684,-9.50827 -8.66392,-15.99298 -2.33201,-3.41588 -4.24002,-6.49348 -4.24002,-6.83913 0,-0.34565 1.6214,-2.39213 3.60312,-4.54775 4.33329,-4.71353 5.19688,-6.221 5.19688,-9.07157 0,-4.36038 -4.15285,-7.89851 -12.2166,-10.40822 -4.3709,-1.36038 -13.7963,-1.72415 -15.87321,-0.61263 -1.36905,0.7327 -1.39989,-1.23736 0.43883,28.0233 0.63362,10.08333 1.15931,19.98333 1.16818,22 0.0153,3.48664 -0.0717,3.67681 -1.77236,3.87328 -1.19945,0.13858 -2.00357,-0.19524 -2.44152,-1.01356 -0.78509,-1.46697 -2.67358,-27.13352 -3.23428,-43.95734 l -0.4032,-12.09762 2.225,-1.1506 c 2.96886,-1.53525 12.08036,-2.06767 17.44791,-1.01954 18.80456,3.67199 25.31746,15.88993 14.65503,27.49225 l -2.64038,2.87313 4.56634,6.89821 c 5.17338,7.81525 7.28026,12.78425 7.28026,17.17027 0,2.75976 -0.30582,3.3243 -3.56808,6.58656 -2.64882,2.64881 -4.49522,3.85236 -7.16667,4.6715 -3.76958,1.15584 -13.29098,1.68456 -22.01934,1.22274 z m 366.63036,-0.68931 c -1.619,-0.24739 -1.82487,-0.60471 -2.15107,-3.73344 -0.19833,-1.90292 -0.45826,-15.8393 -0.57753,-30.96972 l -0.21693,-27.50986 2.368,-0.61073 c 1.30233,-0.33589 6.2404,-0.9494 10.9734,-1.36334 6.82366,-0.59679 9.22593,-1.08295 11.6024,-2.34805 3.45726,-1.84046 5.4588,-1.34292 5.4588,1.35693 0,1.18435 -0.74034,2.10222 -2.6868,3.33095 -3.09727,1.95523 -6.39334,2.6605 -15.47894,3.31213 -3.57446,0.25637 -6.6264,0.67218 -6.78206,0.92403 -0.15567,0.25186 -0.11087,5.17389 0.0995,10.93786 l 0.38254,10.47994 h 5.4452 c 5.97506,0 11.2396,-1.26492 13.8674,-3.33194 2.1928,-1.72484 4.24486,-1.69858 5.18946,0.0664 0.63287,1.18252 0.46827,1.69511 -1.05486,3.28496 -3.18514,3.32456 -7.7984,4.8453 -15.9814,5.26822 l -7.33334,0.379 v 2 2 l 6.66667,-0.0626 c 8.51967,-0.08 12.0802,-1.04209 13.55413,-3.66267 0.82227,-1.462 1.5298,-1.92979 2.71194,-1.79307 2.57393,0.29768 3.12813,1.93167 1.66886,4.92058 -1.911,3.91416 -6.85633,5.68279 -17.1016,6.11612 l -7.83333,0.33131 v 7.51259 7.5126 l 3.34473,0.46002 c 1.83967,0.25302 5.14427,0.25118 7.34354,-0.004 6.03033,-0.6999 13.18126,0.17968 14.00713,1.72291 0.51473,0.96175 0.35827,1.55924 -0.68013,2.59765 -1.26067,1.2607 -2.12007,1.3421 -13.18194,1.24873 -6.50833,-0.0549 -12.639,-0.223 -13.62373,-0.37347 z"
     id="path188"
     inkscape:connector-curvature="0" />
</svg>
