<?xml version="1.0" encoding="UTF-8" standalone="no"?>
<!-- Created with Inkscape (http://www.inkscape.org/) -->

<svg
   xmlns:dc="http://purl.org/dc/elements/1.1/"
   xmlns:cc="http://creativecommons.org/ns#"
   xmlns:rdf="http://www.w3.org/1999/02/22-rdf-syntax-ns#"
   xmlns:svg="http://www.w3.org/2000/svg"
   xmlns="http://www.w3.org/2000/svg"
   xmlns:sodipodi="http://sodipodi.sourceforge.net/DTD/sodipodi-0.dtd"
   xmlns:inkscape="http://www.inkscape.org/namespaces/inkscape"
   width="210mm"
   height="297mm"
   viewBox="0 0 210 297"
   version="1.1"
   id="svg8"
   inkscape:version="0.92.4 5da689c313, 2019-01-14"
   sodipodi:docname="Unnamed document 2.svg">
  <defs
     id="defs2" />
  <sodipodi:namedview
     id="base"
     pagecolor="#ffffff"
     bordercolor="#666666"
     borderopacity="1.0"
     inkscape:pageopacity="0.0"
     inkscape:pageshadow="2"
     inkscape:zoom="1.4"
     inkscape:cx="400"
     inkscape:cy="560"
     inkscape:document-units="mm"
     inkscape:current-layer="layer1"
     showgrid="false"
     inkscape:window-width="3688"
     inkscape:window-height="1961"
     inkscape:window-x="76"
     inkscape:window-y="123"
     inkscape:window-maximized="0" />
  <metadata
     id="metadata5">
    <rdf:RDF>
      <cc:Work
         rdf:about="">
        <dc:format>image/svg+xml</dc:format>
        <dc:type
           rdf:resource="http://purl.org/dc/dcmitype/StillImage" />
        <dc:title></dc:title>
      </cc:Work>
    </rdf:RDF>
  </metadata>
  <g
     inkscape:label="Layer 1"
     inkscape:groupmode="layer"
     id="layer1">
    <path
       id="path42"
       d="m 23.671448,197.23338 c 3.991313,-3.15218 7.586278,-6.78808 10.898663,-10.64115 1.030735,-1.19899 2.011257,-2.44024 3.016883,-3.66036 4.616129,-5.91422 8.649374,-12.27318 12.258886,-18.8459 2.449118,-4.4597 3.696475,-7.12677 5.95244,-11.71093 5.032639,-10.35794 9.383892,-21.03974 13.19358,-31.90487 0.751536,-2.14336 1.455986,-4.30293 2.183976,-6.45439 2.433077,-7.52538 4.689338,-15.115656 6.526758,-22.810572 0.922824,-3.864692 1.188363,-5.331884 1.961398,-9.142656 0.992556,-5.268767 1.839876,-10.568683 2.33479,-15.908705 0.103584,-1.391907 0.241157,-2.788997 0.0968,-4.182097 -0.170924,-1.269503 -0.855901,-0.557562 2.169554,-1.729274 0.124608,-0.04826 -0.09398,0.250732 -0.127243,0.380156 -0.04484,0.174495 -0.07108,0.353253 -0.10662,0.529878 -0.02837,0.225248 -0.06575,0.44954 -0.08511,0.675741 -0.106402,1.24347 -0.06789,2.506125 -0.05854,3.751222 0.02077,2.764925 0.02098,2.352001 0.06829,5.376884 0.15167,9.441831 0.593127,18.874615 1.128851,28.301323 0.129132,1.85241 0.24466,3.70581 0.387397,5.55722 0.429019,5.56474 1.012592,11.10744 1.754047,16.63929 0.637715,4.75786 0.869442,6.05023 1.613416,10.76468 1.137788,6.59437 2.321269,13.198 4.085982,19.65953 1.066601,3.90537 1.557015,5.19528 2.834587,9.01501 1.466522,4.09395 3.074458,8.1429 5.032357,12.02994 0.61505,1.22106 1.27294,2.42045 1.94214,3.6127 1.65075,2.94093 2.31328,3.91397 4.09578,6.74217 2.51332,3.78675 5.26667,7.41618 8.25931,10.83756 1.50384,1.7193 2.05085,2.24562 3.59929,3.84381 1.70411,1.69827 3.53891,3.26151 5.55711,4.57499 0.93441,0.60812 1.25288,0.76064 2.21017,1.28612 1.83208,0.9108 3.69691,1.75405 5.54983,2.62156 0,0 -2.16247,1.68839 -2.16247,1.68839 v 0 c -1.85582,-0.87632 -3.74147,-1.69061 -5.56523,-2.6331 -0.96405,-0.54197 -1.27251,-0.69242 -2.21233,-1.3188 -2.01363,-1.34207 -3.8372,-2.93646 -5.53265,-4.65973 -1.5507,-1.62974 -2.06512,-2.13312 -3.57501,-3.88275 -2.97694,-3.44963 -5.72783,-7.09377 -8.23474,-10.8985 -1.7476,-2.78925 -2.47166,-3.86959 -4.09209,-6.76595 -0.669839,-1.19728 -1.328196,-2.40179 -1.94344,-3.62802 -1.95716,-3.9008 -3.560738,-7.96412 -5.021577,-12.07275 -1.25321,-3.75862 -1.789822,-5.19533 -2.83659,-9.03649 -1.76425,-6.474 -2.931919,-13.09251 -4.065111,-19.6994 -0.722255,-4.61424 -0.984491,-6.12386 -1.607336,-10.77742 -0.740971,-5.53615 -1.325697,-11.08285 -1.760101,-16.65135 -0.14441,-1.85114 -0.263107,-3.70419 -0.39466,-5.55628 -0.554541,-9.399729 -1.019051,-18.804495 -1.281706,-28.217467 -0.09719,-3.385431 -0.06839,-2.288019 -0.146632,-5.330793 -0.03197,-1.243196 -0.09522,-2.500305 -0.02053,-3.744183 0.01378,-0.229415 0.04513,-0.457435 0.0677,-0.686154 0.02826,-0.182885 0.05078,-0.36675 0.08478,-0.548656 0.02614,-0.139914 -0.01492,-0.326422 0.09555,-0.416182 1.900693,-1.544412 2.466436,-2.667971 2.675909,-1.128207 0.14211,1.426181 -0.01315,2.852118 -0.141957,4.274611 -0.563996,5.382789 -1.46735,10.72288 -2.494801,16.035237 -0.786532,3.782221 -1.082747,5.352621 -2.010868,9.184486 -1.869175,7.717113 -4.154614,15.328218 -6.606355,22.878058 -0.729173,2.15408 -1.435256,4.31611 -2.187519,6.46223 -3.808788,10.86607 -8.148783,21.55269 -13.166056,31.91878 -2.225706,4.54622 -3.501482,7.28056 -5.914051,11.70721 -3.57755,6.56419 -7.573367,12.91925 -12.150759,18.83474 -0.995299,1.21882 -1.966153,2.45801 -2.985897,3.65645 -3.24417,3.81267 -6.762993,7.40917 -10.647117,10.57311 0,0 -2.501132,1.23 -2.501132,1.23 z"
       inkscape:connector-curvature="0"
       style="stroke-width:0.26458332" />
    <path
       id="path44"
       d="m 67.088718,139.50287 c 2.53657,0.42366 5.09225,0.72631 7.648654,1.00107 2.628678,0.27841 5.258956,0.54367 7.898011,0.70016 1.680913,0.11555 3.367383,0.0664 5.049266,0.13995 0.805979,-0.004 1.609489,0.0701 2.413346,0.11952 0.319027,0.02 0.638609,0.0268 0.958189,0.0278 0.182639,0.009 0.344178,-0.0502 0.491267,0.0682 0.01992,0.0211 0.03983,0.0421 0.05975,0.0632 0,0 -2.280468,1.67841 -2.280468,1.67841 v 0 c -0.0035,2.6e-4 -0.007,7.9e-4 -0.0105,0.001 -0.02373,0.0748 -0.339045,0.005 -0.41158,0.0223 -0.320609,-0.007 -0.640961,-0.0223 -0.960763,-0.0462 -0.795337,-0.0588 -1.590966,-0.12281 -2.388899,-0.13074 -1.674945,-0.067 -3.3533,-0.0481 -5.026522,-0.16652 -2.633229,-0.1713 -5.257213,-0.44895 -7.88058,-0.73107 -2.577907,-0.27985 -5.15384,-0.58447 -7.71983,-0.9595 0,0 2.160661,-1.78763 2.160661,-1.78763 z"
       inkscape:connector-curvature="0"
       style="stroke-width:0.26458332" />
  </g>
</svg>
